<svg width="42" height="37" viewBox="0 0 42 37" fill="none" xmlns="http://www.w3.org/2000/svg">
<path d="M33.1237 16.9583H12.4473L18.7757 10.2366C19.0717 9.92179 19.214 9.5159 19.1715 9.10824C19.129 8.70058 18.9051 8.32455 18.5491 8.06287C18.1931 7.80119 17.7341 7.6753 17.2731 7.71288C16.8121 7.75047 16.3869 7.94846 16.091 8.26329L7.37412 17.5133C7.31547 17.5869 7.26303 17.6642 7.21722 17.7445C7.21722 17.8216 7.21722 17.8679 7.09518 17.945C7.01616 18.1217 6.97479 18.3099 6.97314 18.5C6.97479 18.69 7.01616 18.8782 7.09518 19.055C7.09518 19.132 7.09518 19.1783 7.21722 19.2554C7.26303 19.3358 7.31547 19.413 7.37412 19.4866L16.091 28.7366C16.2549 28.9106 16.4601 29.0506 16.6922 29.1465C16.9242 29.2425 17.1772 29.292 17.4333 29.2916C17.8407 29.2923 18.2355 29.1669 18.5491 28.937C18.7256 28.8076 18.8716 28.6487 18.9785 28.4693C19.0855 28.2899 19.1514 28.0937 19.1724 27.8917C19.1935 27.6898 19.1693 27.4862 19.1012 27.2926C19.0331 27.0989 18.9225 26.9191 18.7757 26.7633L12.4473 20.0416H33.1237C33.586 20.0416 34.0295 19.8792 34.3564 19.5901C34.6834 19.301 34.867 18.9088 34.867 18.5C34.867 18.0911 34.6834 17.699 34.3564 17.4098C34.0295 17.1207 33.586 16.9583 33.1237 16.9583Z" fill="url(#paint0_linear_888_6614)"/>
<defs>
<linearGradient id="paint0_linear_888_6614" x1="6.97314" y1="18.499" x2="34.867" y2="18.499" gradientUnits="userSpaceOnUse">
<stop stop-color="#44BFBE"/>
<stop offset="0.333333" stop-color="#5581CD"/>
<stop offset="0.666667" stop-color="#B65AA7"/>
<stop offset="1" stop-color="#F54D47"/>
</linearGradient>
</defs>
</svg>
