<svg width="24" height="27" viewBox="0 0 24 27" fill="none" xmlns="http://www.w3.org/2000/svg">
<g id="lille pil knap">
<g id="Vector" filter="url(#filter0_f_581_5401)">
<path d="M2.7147 24.0163C2.93039 24.1088 3.17257 24.1512 3.41523 24.1388C3.65789 24.1263 3.89188 24.0597 4.09208 23.9459L21.426 14.0462C21.6031 13.945 21.7478 13.8099 21.8478 13.6524C21.9478 13.4949 22 13.3198 22 13.1421C22 12.9643 21.9478 12.7892 21.8478 12.6317C21.7478 12.4743 21.6031 12.3391 21.426 12.2379L4.09208 2.3383C3.89225 2.22331 3.658 2.15577 3.41485 2.14307C3.1717 2.13036 2.92898 2.17296 2.71317 2.26624C2.49735 2.35951 2.31672 2.49987 2.19096 2.67201C2.06521 2.84416 1.99916 3.04148 2.00001 3.24247L2.00001 23.0417C1.99997 23.2425 2.06655 23.4394 2.19253 23.6112C2.31851 23.783 2.49909 23.9231 2.7147 24.0163ZM4.66676 5.34229L18.3245 13.1421L4.66676 20.9419L4.66676 5.34229Z" fill="url(#paint0_linear_581_5401)"/>
<path d="M3.84268 2.77166L3.84268 2.77167L3.84411 2.77248L21.1779 12.672C21.1779 12.672 21.1779 12.6721 21.178 12.6721C21.2911 12.7368 21.3733 12.8173 21.4257 12.8997C21.4774 12.9812 21.5 13.064 21.5 13.1421C21.5 13.2201 21.4774 13.3029 21.4257 13.3844C21.3734 13.4669 21.2912 13.5474 21.178 13.6121C21.178 13.6121 21.1779 13.6121 21.1779 13.6121L3.84497 23.5112C3.84486 23.5112 3.84475 23.5113 3.84464 23.5114C3.71606 23.5844 3.55875 23.6308 3.38971 23.6394C3.22078 23.648 3.05524 23.6182 2.91238 23.557C2.77009 23.4954 2.66377 23.4083 2.59573 23.3155C2.52858 23.224 2.49999 23.1295 2.50001 23.0418V23.0417L2.50001 3.24247H2.50001L2.5 3.24035C2.49963 3.15281 2.52786 3.05846 2.59471 2.96696C2.66256 2.87407 2.76892 2.78684 2.91153 2.7252C3.05408 2.6636 3.2197 2.63355 3.38875 2.64238C3.55785 2.65122 3.71489 2.69812 3.84268 2.77166ZM4.91472 4.9081L4.16676 4.48095V5.34229L4.16676 20.9419V21.8032L4.91472 21.3761L18.5725 13.5763L19.3328 13.1421L18.5725 12.7079L4.91472 4.9081Z" stroke="black"/>
</g>
</g>
<defs>
<filter id="filter0_f_581_5401" x="0" y="0.140869" width="24" height="26" filterUnits="userSpaceOnUse" color-interpolation-filters="sRGB">
<feFlood flood-opacity="0" result="BackgroundImageFix"/>
<feBlend mode="normal" in="SourceGraphic" in2="BackgroundImageFix" result="shape"/>
<feGaussianBlur stdDeviation="1" result="effect1_foregroundBlur_581_5401"/>
</filter>
<linearGradient id="paint0_linear_581_5401" x1="2" y1="13.1409" x2="22" y2="13.1409" gradientUnits="userSpaceOnUse">
<stop stop-color="#FF9895"/>
<stop offset="0.135" stop-color="#FBACEE"/>
<stop offset="0.681933" stop-color="#A7C5F8"/>
<stop offset="1" stop-color="#9FEBEA"/>
</linearGradient>
</defs>
</svg>
