<svg width="30" height="36" viewBox="0 0 30 36" fill="none" xmlns="http://www.w3.org/2000/svg">
<path fill-rule="evenodd" clip-rule="evenodd" d="M21.551 15.0558C21.551 16.7784 20.8667 18.4305 19.6486 19.6486C18.4305 20.8667 16.7784 21.551 15.0558 21.551C13.3331 21.551 11.681 20.8667 10.463 19.6486C9.24486 18.4305 8.56055 16.7784 8.56055 15.0558C8.56055 13.3331 9.24486 11.681 10.463 10.463C11.681 9.24486 13.3331 8.56055 15.0558 8.56055C16.7784 8.56055 18.4305 9.24486 19.6486 10.463C20.8667 11.681 21.551 13.3331 21.551 15.0558ZM18.3034 15.0558C18.3034 15.9171 17.9612 16.7431 17.3522 17.3522C16.7431 17.9612 15.9171 18.3034 15.0558 18.3034C14.1945 18.3034 13.3684 17.9612 12.7594 17.3522C12.1503 16.7431 11.8082 15.9171 11.8082 15.0558C11.8082 14.1945 12.1503 13.3684 12.7594 12.7594C13.3684 12.1503 14.1945 11.8082 15.0558 11.8082C15.9171 11.8082 16.7431 12.1503 17.3522 12.7594C17.9612 13.3684 18.3034 14.1945 18.3034 15.0558Z" fill="white"/>
<path fill-rule="evenodd" clip-rule="evenodd" d="M4.53693 25.1984C2.44358 23.2053 0.988264 20.6362 0.355028 17.816C-0.278207 14.9957 -0.0609273 12.0511 0.979392 9.35434C2.01971 6.6576 3.83635 4.32992 6.19957 2.66565C8.56279 1.00137 11.3665 0.075247 14.256 0.00439308C17.1456 -0.0664609 19.9913 0.721136 22.4332 2.26759C24.8752 3.81404 26.8037 6.04988 27.975 8.69239C29.1462 11.3349 29.5076 14.2654 29.0133 17.1132C28.5191 19.9611 27.1914 22.5985 25.1983 24.6918L15.1209 35.2758L4.53693 25.1984ZM22.847 22.4525L15.0089 30.6853L6.77616 22.8471C5.14807 21.2969 4.01623 19.2988 3.52375 17.1053C3.03126 14.9118 3.20026 12.6216 4.00937 10.5242C4.81848 8.42679 6.23137 6.6164 8.06936 5.32196C9.90735 4.02752 12.0879 3.30717 14.3353 3.25199C16.5827 3.19681 18.796 3.80928 20.6953 5.01196C22.5946 6.21464 24.0946 7.95351 25.0057 10.0087C25.9167 12.0639 26.1979 14.343 25.8137 16.558C25.4294 18.773 24.397 20.8243 22.847 22.4525Z" fill="white"/>
</svg>
