<svg width="58" height="45" viewBox="0 0 58 45" fill="none" xmlns="http://www.w3.org/2000/svg">
<g id="Vector">
<g id="Vector_2" filter="url(#filter0_f_581_5423)">
<path d="M4.77754 5.36162C4.5714 5.7562 4.47709 6.19922 4.50471 6.64313C4.53233 7.08704 4.68085 7.51508 4.93433 7.8813L26.9835 39.5908C27.2089 39.9148 27.5099 40.1796 27.8606 40.3625C28.2114 40.5454 28.6014 40.6409 28.9973 40.6409C29.3932 40.6409 29.7832 40.5454 30.1339 40.3625C30.4847 40.1796 30.7857 39.9148 31.0111 39.5908L53.0603 7.8813C53.3164 7.51577 53.4668 7.08723 53.4951 6.64243C53.5234 6.19762 53.4285 5.75362 53.2208 5.35882C53.013 4.96402 52.7004 4.63359 52.317 4.40354C51.9336 4.17349 51.4941 4.05265 51.0464 4.05421L6.94816 4.05421C6.50096 4.05414 6.06227 4.17594 5.67964 4.4064C5.29701 4.63687 4.98504 4.96721 4.77754 5.36162ZM46.3696 8.9326L28.9973 33.9172L11.625 8.9326L46.3696 8.9326Z" fill="#97D5F3"/>
<path d="M52.6508 7.59439L52.6508 7.59438L52.6498 7.59586L30.6007 39.3052C30.6007 39.3052 30.6006 39.3053 30.6006 39.3053C30.4214 39.5629 30.182 39.7735 29.9028 39.9191C29.6235 40.0648 29.3128 40.1409 28.9973 40.1409C28.6818 40.1409 28.3711 40.0648 28.0918 39.9191C27.8126 39.7735 27.5732 39.5629 27.394 39.3053C27.394 39.3053 27.3939 39.3052 27.3939 39.3052L5.34546 7.59675C5.34539 7.59664 5.34532 7.59654 5.34525 7.59643C5.14367 7.30508 5.0257 6.96479 5.00375 6.61208C4.98179 6.25926 5.05673 5.90705 5.22068 5.59321C5.38557 5.28031 5.6334 5.01795 5.93762 4.83471L5.67964 4.4064L5.93762 4.83471C6.24225 4.65122 6.5917 4.55416 6.94807 4.55421L6.94816 4.55421L51.0464 4.55422L51.0482 4.55421C51.4047 4.55297 51.7546 4.64922 52.0597 4.83228C52.3648 5.01533 52.6133 5.27808 52.7783 5.59165C52.9433 5.9052 53.0186 6.25767 52.9961 6.61068C52.9737 6.96368 52.8543 7.30395 52.6508 7.59439ZM46.7801 9.21804L47.3262 8.4326L46.3696 8.4326L11.625 8.4326L10.6684 8.4326L11.2145 9.21804L28.5868 34.2027L28.9973 34.7931L29.4078 34.2027L46.7801 9.21804Z" stroke="black"/>
</g>
</g>
<defs>
<filter id="filter0_f_581_5423" x="0.5" y="0.0541992" width="57" height="44.5867" filterUnits="userSpaceOnUse" color-interpolation-filters="sRGB">
<feFlood flood-opacity="0" result="BackgroundImageFix"/>
<feBlend mode="normal" in="SourceGraphic" in2="BackgroundImageFix" result="shape"/>
<feGaussianBlur stdDeviation="2" result="effect1_foregroundBlur_581_5423"/>
</filter>
</defs>
</svg>
