<svg width="35" height="42" viewBox="0 0 35 42" fill="none" xmlns="http://www.w3.org/2000/svg">
<path d="M22.0644 29.1562V34.1016C22.0644 35.1484 21.7605 35.6719 21.1528 35.6719C20.7944 35.6719 20.4438 35.5 20.101 35.1562V28.1016C20.4438 27.7578 20.7944 27.5859 21.1528 27.5859C21.7605 27.5859 22.0644 28.1094 22.0644 29.1562ZM29.9645 29.1797V30.2578H27.8609V29.1797C27.8609 28.1172 28.2115 27.5859 28.9127 27.5859C29.6139 27.5859 29.9645 28.1172 29.9645 29.1797ZM7.38595 24.0703H9.88689V21.8672H2.59443V24.0703H5.04862V37.4062H7.38595V24.0703ZM14.1175 37.4062H16.1977V25.8281H14.1175V34.6875C13.65 35.3438 13.2059 35.6719 12.7852 35.6719C12.5047 35.6719 12.3411 35.5078 12.2943 35.1797C12.2788 35.1328 12.271 34.8594 12.271 34.3594V25.8281H10.1907V34.9922C10.1907 35.7578 10.2531 36.3281 10.3777 36.7031C10.5647 37.2812 11.0166 37.5703 11.7334 37.5703C12.4813 37.5703 13.276 37.0938 14.1175 36.1406V37.4062ZM24.1446 33.9375V29.3203C24.1446 28.1797 24.0745 27.4062 23.9342 27C23.6693 26.125 23.1162 25.6875 22.2747 25.6875C21.4956 25.6875 20.771 26.1094 20.101 26.9531V21.8672H18.0208V37.4062H20.101V36.2812C20.8022 37.1406 21.5268 37.5703 22.2747 37.5703C23.1162 37.5703 23.6693 37.1406 23.9342 36.2812C24.0745 35.8594 24.1446 35.0781 24.1446 33.9375ZM32.0447 33.7031V33.3984H29.9178C29.9178 34.1953 29.9022 34.6719 29.871 34.8281C29.762 35.3906 29.4503 35.6719 28.9361 35.6719C28.2193 35.6719 27.8609 35.1328 27.8609 34.0547V32.0156H32.0447V29.6016C32.0447 28.3672 31.8344 27.4609 31.4137 26.8828C30.806 26.0859 29.9801 25.6875 28.9361 25.6875C27.8765 25.6875 27.0429 26.0859 26.4352 26.8828C25.9989 27.4609 25.7807 28.3672 25.7807 29.6016V33.6562C25.7807 34.8906 26.0067 35.7969 26.4585 36.375C27.0662 37.1719 27.9077 37.5703 28.9828 37.5703C30.1048 37.5703 30.9462 37.1562 31.5072 36.3281C31.7876 35.9062 31.9513 35.4844 31.998 35.0625C32.0292 34.9219 32.0447 34.4688 32.0447 33.7031ZM17.8338 12.3047V7.38281C17.8338 6.30469 17.4988 5.76562 16.8287 5.76562C16.1587 5.76562 15.8237 6.30469 15.8237 7.38281V12.3047C15.8237 13.3984 16.1587 13.9453 16.8287 13.9453C17.4988 13.9453 17.8338 13.3984 17.8338 12.3047ZM34.6392 29.9062C34.6392 33.5625 34.4366 36.2969 34.0315 38.1094C33.8133 39.0312 33.3614 39.8047 32.6758 40.4297C31.9902 41.0547 31.1955 41.4141 30.2917 41.5078C27.4246 41.8359 23.1006 42 17.3196 42C11.5386 42 7.21455 41.8359 4.34743 41.5078C3.44366 41.4141 2.64507 41.0547 1.95167 40.4297C1.25826 39.8047 0.810273 39.0312 0.607705 38.1094C0.202568 36.3594 0 33.625 0 29.9062C0 26.25 0.202568 23.5156 0.607705 21.7031C0.825855 20.7812 1.27774 20.0078 1.96335 19.3828C2.64897 18.7578 3.45145 18.3906 4.3708 18.2812C7.22234 17.9688 11.5386 17.8125 17.3196 17.8125C23.1006 17.8125 27.4246 17.9688 30.2917 18.2812C31.1955 18.3906 31.9941 18.7578 32.6875 19.3828C33.3809 20.0078 33.8289 20.7812 34.0315 21.7031C34.4366 23.4531 34.6392 26.1875 34.6392 29.9062ZM11.3127 0H13.6967L10.8686 9.35156V15.7031H8.53124V9.35156C8.31309 8.19531 7.83783 6.53906 7.10547 4.38281C6.52893 2.77344 6.02251 1.3125 5.58621 0H8.06378L9.72328 6.16406L11.3127 0ZM19.9608 7.80469V11.9062C19.9608 13.1719 19.7426 14.0938 19.3063 14.6719C18.7142 15.4688 17.8883 15.8672 16.8287 15.8672C15.7847 15.8672 14.9667 15.4688 14.3746 14.6719C13.9383 14.0781 13.7201 13.1562 13.7201 11.9062V7.80469C13.7201 6.55469 13.9383 5.64062 14.3746 5.0625C14.9667 4.26562 15.7847 3.86719 16.8287 3.86719C17.8883 3.86719 18.7142 4.26562 19.3063 5.0625C19.7426 5.64062 19.9608 6.55469 19.9608 7.80469ZM27.7908 4.00781V15.7031H25.6638V14.4141C24.838 15.3828 24.0355 15.8672 23.2564 15.8672C22.5396 15.8672 22.0799 15.5781 21.8774 15C21.7527 14.625 21.6904 14.0391 21.6904 13.2422V4.00781H23.8174V12.6094C23.8174 13.125 23.8251 13.3984 23.8407 13.4297C23.8875 13.7734 24.0511 13.9453 24.3316 13.9453C24.7523 13.9453 25.1964 13.6094 25.6638 12.9375V4.00781H27.7908Z" fill="white"/>
</svg>
