<svg width="42" height="42" viewBox="0 0 42 42" fill="none" xmlns="http://www.w3.org/2000/svg">
<path d="M12.18 0H29.82C36.54 0 42 5.46 42 12.18V29.82C42 33.0503 40.7168 36.1484 38.4326 38.4326C36.1484 40.7168 33.0503 42 29.82 42H12.18C5.46 42 0 36.54 0 29.82V12.18C0 8.94966 1.28325 5.85163 3.56744 3.56744C5.85163 1.28325 8.94966 0 12.18 0ZM11.76 4.2C9.75496 4.2 7.83205 4.9965 6.41427 6.41427C4.9965 7.83205 4.2 9.75496 4.2 11.76V30.24C4.2 34.419 7.581 37.8 11.76 37.8H30.24C32.245 37.8 34.168 37.0035 35.5857 35.5857C37.0035 34.168 37.8 32.245 37.8 30.24V11.76C37.8 7.581 34.419 4.2 30.24 4.2H11.76ZM32.025 7.35C32.7212 7.35 33.3889 7.62656 33.8812 8.11884C34.3734 8.61113 34.65 9.27881 34.65 9.975C34.65 10.6712 34.3734 11.3389 33.8812 11.8312C33.3889 12.3234 32.7212 12.6 32.025 12.6C31.3288 12.6 30.6611 12.3234 30.1688 11.8312C29.6766 11.3389 29.4 10.6712 29.4 9.975C29.4 9.27881 29.6766 8.61113 30.1688 8.11884C30.6611 7.62656 31.3288 7.35 32.025 7.35ZM21 10.5C23.7848 10.5 26.4555 11.6062 28.4246 13.5754C30.3938 15.5445 31.5 18.2152 31.5 21C31.5 23.7848 30.3938 26.4555 28.4246 28.4246C26.4555 30.3938 23.7848 31.5 21 31.5C18.2152 31.5 15.5445 30.3938 13.5754 28.4246C11.6062 26.4555 10.5 23.7848 10.5 21C10.5 18.2152 11.6062 15.5445 13.5754 13.5754C15.5445 11.6062 18.2152 10.5 21 10.5ZM21 14.7C19.3291 14.7 17.7267 15.3637 16.5452 16.5452C15.3637 17.7267 14.7 19.3291 14.7 21C14.7 22.6709 15.3637 24.2733 16.5452 25.4548C17.7267 26.6363 19.3291 27.3 21 27.3C22.6709 27.3 24.2733 26.6363 25.4548 25.4548C26.6363 24.2733 27.3 22.6709 27.3 21C27.3 19.3291 26.6363 17.7267 25.4548 16.5452C24.2733 15.3637 22.6709 14.7 21 14.7Z" fill="white"/>
</svg>
